<svg width="1251.9" height="390.3" xmlns="http://www.w3.org/2000/svg">
 <metadata id="metadata3560">image/svg+xml</metadata>

 <g>
  <title>background</title>
  <rect fill="none" id="canvas_background" height="402" width="582" y="-1" x="-1"/>
 </g>
 <g>
  <title>Layer 1</title>
  <g id="dark">
   <g id="g3471">
    <path id="path3473" d="m59.2,390.3l44.1,0c10.5,0 23.4,-7.4 28.9,-16.4l37.3,-61.9c4.5,-9.2 4.3,-22.2 -0.8,-30.6l-22.1,-36.3l-87.4,145.2z" fill="#F6C25B"/>
    <path id="path3475" d="m106.7,211.5l-98.2,164.3c-3.7,8 0.2,14.6 10,14.6l40.8,0l87.4,-145.2l-40,-66.2c5.4,8.7 5.4,23.6 0,32.5" fill="#0A985C"/>
    <path id="path3477" d="m18.3,0c-10.6,0 -14.7,7.4 -9.2,16.4l159.6,265c5.1,8.4 5.1,21.7 0.8,30.6l38.8,-64.6l-148.9,-247.4l-41.1,0l0,0z" fill="#5586C5"/>
    <path id="path3479" d="m59.2,0l148.9,247.4l21.7,-35.9c5.5,-9 5.5,-23.6 0,-32.6l-97.6,-162.5c-5.4,-9 -18.3,-16.4 -28.9,-16.4l-44.1,0l0,0z" fill="#D9423E"/>
   </g>
   <g id="g3481">
    <g id="g3483">
     <path id="path3485" d="m756.5,117.1c0,17.4 -4.7,30.8 -14.2,40.2c-9.6,9.4 -22.8,14.1 -40.2,14.1l-33.6,0l0,-104.3l35.9,0c16.6,0 29.5,4.3 38.4,12.9c9.2,8.6 13.7,21.1 13.7,37.1zm-29.1,1.2c0,-9.6 -2,-16.6 -5.7,-21.3s-9.4,-6.8 -17.2,-6.8l-8.2,0l0,58.3l6.2,0c8.6,0 14.8,-2.5 18.7,-7.4c4.2,-5.1 6.2,-12.7 6.2,-22.8z" fill="#E6E6E5"/>
    </g>
    <g id="g3487">
     <path id="path3489" d="m803.5,172.9c-13.5,0 -23.8,-3.5 -31.2,-10.7c-7.4,-7.2 -11.1,-17.4 -11.1,-30.6c0,-13.7 3.5,-24.2 10.3,-31.4c6.8,-7.2 16.6,-10.9 29.3,-10.9c12.1,0 21.5,3.1 28.1,9.6c6.6,6.4 10,15.4 10,27.5l0,12.5l-49.6,0c0.2,4.5 1.8,8 4.9,10.5s7.2,3.9 12.7,3.9c4.9,0 9.4,-0.4 13.5,-1.4c4.1,-1 8.6,-2.5 13.3,-4.7l0,20.1c-4.3,2.3 -8.8,3.7 -13.5,4.7c-4.8,0.5 -10.3,0.9 -16.7,0.9zm-1.6,-64.6c-3.3,0 -6,1 -8.2,3.1s-3.5,5.3 -3.9,9.8l23.8,0c-0.2,-3.9 -1.2,-7 -3.3,-9.4c-2.1,-2.3 -4.9,-3.5 -8.4,-3.5z" fill="#E6E6E5"/>
    </g>
    <g id="g3491">
     <path id="path3493" d="m866.7,171.5l-30.6,-80.8l28.9,0l13.7,47.8c0,0.2 0.2,0.6 0.4,1.2c0.2,0.6 0.2,1.2 0.4,2c0.2,0.8 0.2,1.6 0.4,2.5c0.2,1 0.2,1.8 0.2,2.5l0.4,0c0,-2.5 0.4,-5.1 1.4,-8l14.2,-48l28.9,0l-30.6,80.8l-27.7,0l0,0z" fill="#E6E6E5"/>
    </g>
    <g id="g3495">
     <path id="path3497" d="m954.7,171.5l-27.5,0l0,-104.2l61.3,0l0,22.7l-33.8,0l0,19.9l31,0l0,22.6l-31,0l0,39l0,0z" fill="#E6E6E5"/>
    </g>
    <g id="g3499">
     <path id="path3501" d="m1033.8,172.9c-13.3,0 -23.6,-3.5 -31.2,-10.7c-7.4,-7.2 -11.1,-17.4 -11.1,-30.6c0,-13.7 3.5,-24.2 10.3,-31.4c6.8,-7.2 16.6,-10.9 29.3,-10.9c12.1,0 21.5,3.1 28.1,9.6c6.6,6.4 10,15.4 10,27.5l0,12.5l-49.6,0c0.2,4.5 1.8,8 4.9,10.5c3.1,2.5 7.2,3.9 12.7,3.9c4.9,0 9.4,-0.4 13.5,-1.4c4.1,-1 8.4,-2.5 13.3,-4.7l0,20.1c-4.3,2.3 -8.8,3.7 -13.5,4.7c-4.8,0.5 -10.3,0.9 -16.7,0.9zm-1.6,-64.6c-3.3,0 -6,1 -8.2,3.1c-2.1,2.1 -3.5,5.3 -3.9,9.8l23.8,0c-0.2,-3.9 -1.2,-7 -3.3,-9.4c-2.2,-2.3 -4.9,-3.5 -8.4,-3.5z" fill="#E6E6E5"/>
    </g>
    <g id="g3503">
     <path id="path3505" d="m1138,146.7c0,8.6 -2.9,15.2 -8.8,19.7c-5.9,4.5 -14.2,6.6 -25.2,6.6c-5.9,0 -11.1,-0.4 -15.4,-1c-4.5,-0.6 -8.8,-1.8 -13.5,-3.5l0,-22.2c4.3,2 9,3.5 14.1,4.7c5.1,1.2 9.8,1.8 13.7,1.8c6,0 9,-1.4 9,-4.1c0,-1.4 -0.8,-2.7 -2.5,-3.9s-6.6,-3.3 -14.6,-6.4c-7.4,-3.1 -12.5,-6.4 -15.4,-10.3c-2.9,-3.9 -4.5,-8.8 -4.5,-14.6c0,-7.4 2.9,-13.3 8.6,-17.6c5.7,-4.3 13.9,-6.2 24.4,-6.2c5.3,0 10.3,0.6 14.8,1.8c4.7,1.2 9.4,2.9 14.4,5.1l-7.4,18c-3.7,-1.6 -7.6,-3.1 -11.7,-4.3c-4.1,-1.2 -7.4,-1.8 -10,-1.8c-4.5,0 -6.8,1.2 -6.8,3.3c0,1.4 0.8,2.5 2.3,3.5c1.6,1 6.2,2.9 13.7,6c5.7,2.3 9.8,4.7 12.5,6.8c2.7,2.1 4.9,4.9 6,7.8c1.5,2.8 2.3,6.6 2.3,10.8z" fill="#E6E6E5"/>
    </g>
    <g id="g3507">
     <path id="path3509" d="m1183.8,150.8c3.7,0 8.2,-1 13.5,-2.7l0,20.3c-3.7,1.6 -7.2,2.7 -10.7,3.5c-3.3,0.8 -7.4,1 -11.9,1c-9.4,0 -16,-2.3 -20.1,-6.8c-4.1,-4.7 -6.2,-11.7 -6.2,-21.1l0,-33.4l-9.8,0l0,-11.3l12.3,-8.8l7.2,-17l18.1,0l0,16.2l19.7,0l0,20.9l-19.7,0l0,31.4c0.2,5.3 2.7,7.8 7.6,7.8z" fill="#E6E6E5"/>
    </g>
   </g>
   <g id="g3511">
    <g id="g3513">
     <path id="path3515" d="m364,113l45.1,0l0,56.2c-12.3,4.1 -25.8,6.2 -40.4,6.2c-16,0 -28.5,-4.7 -37.3,-14.1c-8.8,-9.4 -13.1,-22.6 -13.1,-39.8c0,-16.8 4.9,-29.9 14.4,-39.2c9.6,-9.4 23,-14.1 40.4,-14.1c6.6,0 12.7,0.6 18.5,2c5.9,1.2 10.9,2.7 15.2,4.7l-8.8,22.1c-7.4,-3.7 -15.8,-5.5 -24.8,-5.5c-8.2,0 -14.6,2.7 -19.1,8c-4.5,5.3 -6.8,13.1 -6.8,23c0,9.8 2,17.2 6,22.2s10,7.6 17.6,7.6c4.1,0 8,-0.4 11.5,-1.2l0,-16.4l-18.5,0l0.1,-21.7l0,0l0,0z" fill="#E6E6E5"/>
    </g>
    <g id="g3517">
     <path id="path3519" d="m510,119.6c0,17.4 -4.9,30.8 -14.4,40.2c-9.6,9.4 -23,14.1 -40.4,14.1l-33.8,0l0,-104.4l36.1,0c16.8,0 29.7,4.3 38.8,12.9c9.2,8.7 13.7,21 13.7,37.2zm-29.3,1c0,-9.6 -2,-16.6 -5.7,-21.3c-3.7,-4.7 -9.6,-7 -17.2,-7l-8.2,0l0,58.3l6.2,0c8.6,0 14.8,-2.5 18.9,-7.4c4.1,-4.7 6,-12.3 6,-22.6z" fill="#E6E6E5"/>
    </g>
    <g id="g3521">
     <path id="path3523" d="m561.9,113l45.1,0l0,56.2c-12.3,4.1 -25.6,6.2 -40.4,6.2c-16,0 -28.5,-4.7 -37.3,-14.1c-8.8,-9.4 -13.1,-22.6 -13.1,-39.8c0,-16.8 4.9,-29.9 14.4,-39.2c9.6,-9.4 23,-14.1 40.4,-14.1c6.6,0 12.7,0.6 18.5,2c5.9,1.2 10.9,2.7 15.2,4.7l-9,22.1c-7.6,-3.7 -15.8,-5.5 -24.8,-5.5c-8.2,0 -14.6,2.7 -19.1,8c-4.5,5.3 -6.8,13.1 -6.8,23c0,9.8 2,17.2 6,22.2s10,7.6 17.6,7.6c4.1,0 8,-0.4 11.5,-1.2l0,-16.4l-18.5,0l0.3,-21.7l0,0z" fill="#E6E6E5"/>
    </g>
   </g>
   <path id="path3525" d="m106.7,211.5l-23.4,39.2l42,29.9l21.5,-35.5l-40,-66.2c5.3,8.8 5.3,23.7 -0.1,32.6z" fill="#168B58"/>
   <path id="path3527" d="m146.7,245.1l-21.5,35.5l44.1,31.4c4.5,-9.2 4.3,-22.2 -0.8,-30.6l-21.8,-36.3z" fill="#D7AB56"/>
  </g>
  <text style="cursor: move;" font-style="normal" font-weight="normal" font-size="143.75px" font-family="sans-serif" fill="#e6e6e5" stroke-width="1px" id="text3822" y="320.75354" x="329.84888" xml:space="preserve">Cerrado 2017</text>
 </g>
</svg>