<?xml version="1.0" encoding="UTF-8"?>
<!DOCTYPE svg PUBLIC "-//W3C//DTD SVG 1.1//EN" "http://www.w3.org/Graphics/SVG/1.1/DTD/svg11.dtd">
<!-- Creator: CorelDRAW 2017 -->
<svg xmlns="http://www.w3.org/2000/svg" xml:space="preserve" width="1190px" height="404px" version="1.1" style="shape-rendering:geometricPrecision; text-rendering:geometricPrecision; image-rendering:optimizeQuality; fill-rule:evenodd; clip-rule:evenodd"
viewBox="0 0 960 326"
 xmlns:xlink="http://www.w3.org/1999/xlink">
 <defs>
  <style type="text/css">
   <![CDATA[
    .str0 {stroke:#FEFEFE;stroke-width:0}
    .fil0 {fill:#FEFEFE}
    .fil5 {fill:#42A5F5}
    .fil3 {fill:#66BA6A}
    .fil7 {fill:#CBE6FC}
    .fil2 {fill:#EF5350}
    .fil6 {fill:#F7A655}
    .fil8 {fill:#F9C0BF}
    .fil4 {fill:#FFEE58}
    .fil1 {fill:white}
   ]]>
  </style>
 </defs>
 <g id="Camada_x0020_1">
  <metadata id="CorelCorpID_0Corel-Layer"/>
  <g id="_2571646169584">
   <path class="fil0 str0" d="M433 132l0 -41c16,0 22,4 22,20 0,16 -6,21 -22,21zm-20 17c23,0 51,4 60,-23 9,-26 -7,-52 -30,-50l-30 0 0 73z"/>
   <path class="fil0 str0" d="M607 130l0 -41c16,-2 22,5 22,20 0,14 -7,23 -22,20zm9 16c39,1 46,-59 12,-71 -10,-3 -29,-2 -40,-2l0 73 28 0z"/>
   <path class="fil0 str0" d="M404 145l0 -39 -32 0 0 15 13 0 0 12c-9,1 -19,3 -23,-9 -4,-10 -3,-30 13,-33 9,-1 14,1 21,3l6 -15c-6,-4 -18,-5 -25,-5 -47,0 -49,64 -14,74 10,3 32,1 40,-3z"/>
   <path class="fil0 str0" d="M544 145l0 -39 -32 0 0 15 13 0 0 12c-8,1 -17,1 -21,-5 -6,-8 -7,-33 9,-37 9,-2 16,1 23,3l6 -15c-12,-7 -62,-13 -62,33 0,17 7,29 18,34 10,5 35,4 45,-1z"/>
   <path class="fil0 str0" d="M673 111c1,-6 3,-9 8,-9 5,0 8,4 8,9l-17 0zm31 19c-5,1 -29,11 -31,-6l35 0c0,-14 0,-31 -20,-34 -18,-3 -30,5 -34,19 -3,14 0,31 15,37 10,4 32,2 34,-2 1,-2 0,-11 0,-14z"/>
   <path class="fil0 str0" d="M835 111c1,-12 16,-12 17,0l-17 0zm31 32l0 -13c-5,2 -12,4 -18,4 -8,0 -12,-3 -13,-10l35 0c0,-8 0,-16 -3,-23 -9,-17 -41,-17 -49,2 -8,20 -1,44 27,44 6,0 18,0 21,-5z"/>
   <path class="fil0 str0" d="M769 145c4,1 14,1 19,1 0,-6 -1,-23 0,-27 1,0 -1,0 2,-1 0,0 2,0 3,0l16 0 0 -15 -22 0 0 -14 24 0 0 -16 -43 0 0 72z"/>
   <path class="fil0 str0" d="M737 126l-1 2 -1 -4 -10 -35 -20 0c4,15 14,37 20,53 2,6 5,4 20,4 2,-2 20,-51 22,-57l-20 0c-2,8 -10,32 -10,37z"/>
   <path class="fil0 str0" d="M874 129l0 14c2,4 20,5 25,4 24,-2 23,-26 11,-33 -10,-6 -19,-5 -18,-12 8,-2 13,2 20,3l5 -12c-6,-5 -23,-6 -31,-4 -16,5 -18,24 -1,32 3,2 11,4 13,6 8,7 -13,6 -24,1z"/>
   <path class="fil0 str0" d="M959 90l-14 0 0 -11 -13 0c-2,8 -5,14 -13,18l0 8 7 0c0,24 -4,42 18,43 3,0 16,-1 16,-4l0 -13c-18,4 -15,3 -15,-26l14 0 0 -14z"/>
   <path class="fil0 str0" d="M413 228l-10 -2c-3,13 -12,21 -26,18 -12,-3 -18,-13 -18,-26 -1,-32 22,-36 34,-30 7,4 7,9 10,13l10 -2c-4,-16 -20,-25 -40,-20 -33,10 -32,68 4,74 20,3 34,-8 37,-24z"/>
   <path class="fil0 str0" d="M818 187c7,-2 12,2 15,6 4,8 8,46 -7,52 -7,3 -13,-2 -15,-7 -4,-9 -8,-46 7,-51zm-2 -8c-16,4 -20,23 -18,42 1,18 8,36 29,31 16,-4 19,-24 18,-43 -1,-18 -9,-36 -29,-31z"/>
   <path class="fil0 str0" d="M620 206c10,-3 16,6 18,14 1,10 -1,21 -9,23 -21,6 -25,-32 -8,-38zm17 -2c-3,-1 -2,-2 -5,-4 -2,-1 -4,-2 -6,-2 -16,-2 -25,10 -25,28 0,23 23,35 37,20l0 5 9 0 0 -72 -9 0 0 25z"/>
   <path class="fil0 str0" d="M742 199l10 1c0,-6 2,-10 6,-12 16,-9 29,9 16,23 -13,14 -32,24 -33,40l48 0 0 -8 -35 0c3,-7 16,-15 21,-20l10 -11c9,-13 4,-34 -21,-33 -13,1 -20,9 -21,21z"/>
   <path class="fil0 str0" d="M580 226c4,26 -32,23 -26,8 3,-6 15,-5 26,-8zm0 20c1,-1 -1,-1 1,-1l0 2c1,6 1,5 11,5 -7,-20 3,-41 -8,-50 -9,-7 -39,-4 -38,13l8 1c4,-7 3,-10 14,-10 10,0 12,3 12,13l-24 4c-27,7 -8,45 24,23z"/>
   <path class="fil0 str0" d="M431 220c1,-8 6,-14 15,-14 9,0 13,6 14,14l-29 0zm38 16c-2,-1 -6,-1 -9,-1 -6,17 -28,14 -29,-6l39 0c2,-38 -44,-38 -48,-9 -7,42 43,42 48,17z"/>
   <path class="fil0 str0" d="M677 206c22,-6 26,31 9,38 -22,8 -28,-32 -9,-38zm-1 -8c-30,6 -25,60 10,54 30,-6 25,-61 -10,-54z"/>
   <path class="fil0 str0" d="M911 188l35 0c-15,22 -22,33 -25,63l10 0c2,-37 27,-62 27,-65 0,-1 0,-5 0,-6l-47 0 0 8z"/>
   <path class="fil0 str0" d="M861 197l0 8c5,0 15,-7 18,-9l0 56 9 0 0 -73 -6 0c-3,9 -12,13 -21,18z"/>
   <path class="fil0 str0" d="M522 205l0 -6 -9 0 0 52 9 0c0,-9 -1,-22 0,-31 1,-12 5,-15 16,-12l3 -8c-4,-3 -12,-5 -17,0 -1,1 -1,1 -2,2l-2 2z"/>
   <path class="fil0 str0" d="M488 205l0 -6 -9 0 0 52 9 0c0,-9 -1,-22 0,-31 1,-12 5,-15 16,-12l3 -8c-4,-3 -12,-5 -17,0 -1,1 -1,1 -2,2l-2 2z"/>
   <path class="fil0 str0" d="M582 247l0 -2c-3,0 0,0 -1,1 1,1 0,0 1,1z"/>
  </g>
  <g id="_2536327230304">
   <path class="fil1" d="M119 264l0 1 2 6c0,5 0,4 -2,6l0 49 4 0 0 -77 3 0 0 77 12 0 0 -48c-2,-2 -2,-1 -2,-6 0,-1 0,-2 0,-3 1,-6 0,-1 1,-3l0 -1c1,-20 0,-17 8,-31 21,-35 8,-26 36,-42 9,-5 17,-10 26,-15 -1,-4 -2,-5 -4,-9 -2,-3 -3,-5 -5,-8 -5,3 -11,6 -16,10 -5,3 -11,8 -17,9 1,-9 2,-15 1,-26 0,-16 6,-19 16,-39 3,-6 8,-11 9,-19 -7,-2 -8,-5 -16,-7 -3,5 -14,29 -19,32 -2,-8 -14,-23 -16,-32 -9,1 -9,5 -17,7 0,5 4,10 7,15 11,22 18,23 18,47l-3 40c-4,7 -14,22 -16,29 -2,-2 -1,-1 -2,-3 -30,-45 -11,-46 -19,-82l-19 0c0,7 1,9 1,17 0,7 0,14 0,20 -5,-4 -28,-18 -33,-19 -2,9 -7,9 -7,17l25 14c28,17 17,10 36,42 2,4 5,7 7,12 3,6 2,10 2,18z"/>
   <path class="fil2" d="M119 277l0 -12 0 -1c-19,0 -47,-15 -62,-28 -31,-26 -40,-54 -44,-92 -3,-29 18,-38 38,-50 9,-5 21,-12 26,-20l0 -17c-29,35 -76,37 -77,78 0,18 2,33 6,46 7,21 19,41 35,57l22 18c13,9 42,22 57,21z"/>
   <path class="fil3" d="M207 52c35,25 56,51 59,96 0,6 -2,18 -4,22 -3,7 -8,8 -12,15l17 0c10,-16 12,-23 10,-46 -1,-16 -7,-31 -13,-43 -11,-22 -28,-37 -48,-51 -4,-3 -5,-4 -9,-5l0 14z"/>
   <path class="fil4" d="M78 55l0 17c26,-17 34,-91 95,-45l33 25 0 -14 -31 -24c-40,-27 -63,-13 -87,23 -4,6 -8,12 -11,18z"/>
   <path class="fil5" d="M137 265l0 1 0 12c13,0 21,-3 30,-10 29,-23 25,-41 66,-61 11,-5 28,-13 34,-22l-17 0 -23 11c-3,2 -6,3 -8,5 -40,21 -45,65 -81,65z"/>
   <polygon class="fil6" points="77,74 78,73 78,55 77,57 "/>
   <path class="fil7" d="M138 278l0 -12c-1,2 0,-2 -1,3 0,1 0,2 0,3 0,4 0,4 2,6z"/>
   <path class="fil8" d="M119 277c2,-2 2,0 2,-6l-2 -6 0 12z"/>
  </g>
 </g>
</svg>
