<?xml version="1.0" encoding="UTF-8"?>
<!DOCTYPE svg PUBLIC "-//W3C//DTD SVG 1.1//EN" "http://www.w3.org/Graphics/SVG/1.1/DTD/svg11.dtd">
<!-- Creator: CorelDRAW 2017 -->
<svg xmlns="http://www.w3.org/2000/svg" xml:space="preserve" width="4601px" height="1563px" version="1.1" style="shape-rendering:geometricPrecision; text-rendering:geometricPrecision; image-rendering:optimizeQuality; fill-rule:evenodd; clip-rule:evenodd"
viewBox="0 0 1131 384"
 xmlns:xlink="http://www.w3.org/1999/xlink">
 <defs>
  <style type="text/css">
   <![CDATA[
    .str0 {stroke:#FEFEFE;stroke-width:0}
    .fil0 {fill:#FEFEFE}
   ]]>
  </style>
 </defs>
 <g id="Camada_x0020_1">
  <metadata id="CorelCorpID_0Corel-Layer"/>
  <g id="_2161943927120">
   <path class="fil0 str0" d="M510 155l0 -48c19,0 26,4 26,24 0,19 -7,24 -26,24zm-23 20c27,0 60,5 71,-28 10,-30 -8,-61 -35,-58l-35 0 0 86z"/>
   <path class="fil0 str0" d="M715 153l0 -48c19,-2 26,5 26,24 0,16 -8,27 -26,24zm10 19c46,1 55,-70 14,-84 -12,-4 -34,-2 -47,-3l0 86 33 0z"/>
   <path class="fil0 str0" d="M476 170l0 -46 -37 0 0 18 15 0 0 14c-10,1 -22,3 -27,-11 -4,-12 -3,-35 15,-38 10,-2 17,2 25,4l7 -18c-7,-4 -21,-6 -30,-6 -55,0 -57,75 -16,87 11,3 37,1 47,-4z"/>
   <path class="fil0 str0" d="M641 170l0 -46 -37 0 0 18 15 0 0 14c-10,1 -20,1 -24,-6 -7,-10 -8,-38 11,-43 10,-3 19,1 27,4l7 -18c-14,-9 -73,-15 -73,39 0,20 8,34 22,40 12,6 41,5 53,-1z"/>
   <path class="fil0 str0" d="M793 131c1,-7 3,-11 10,-11 6,0 9,4 10,11l-20 0zm36 22c-5,1 -34,14 -37,-7l41 0c0,-17 0,-37 -23,-41 -21,-4 -36,5 -40,23 -4,17 0,36 18,43 11,4 37,3 41,-2 1,-2 1,-13 1,-16z"/>
   <path class="fil0 str0" d="M984 131c2,-15 19,-14 19,0l-19 0zm36 37l0 -15c-6,3 -14,5 -22,5 -9,0 -14,-3 -15,-12l41 0c0,-10 1,-19 -3,-27 -10,-20 -49,-20 -58,3 -9,23 -1,52 32,52 7,0 22,0 25,-6z"/>
   <path class="fil0 str0" d="M907 171c5,1 16,1 22,1 0,-7 -1,-27 0,-31 1,-1 -2,0 3,-1 1,0 3,0 3,0l19 0 0 -18 -25 0 0 -17 28 0 0 -19 -51 0 0 85z"/>
   <path class="fil0 str0" d="M869 149l-1 3 -1 -5 -12 -41 -24 0c5,18 17,43 23,63 2,7 6,4 24,4 2,-2 24,-60 26,-67l-24 0c-2,10 -12,38 -12,44z"/>
   <path class="fil0 str0" d="M1030 152l0 17c3,5 23,5 30,5 29,-3 27,-30 13,-39 -12,-7 -22,-6 -21,-14 10,-3 15,2 24,4l6 -14c-7,-6 -27,-7 -37,-5 -19,5 -21,28 -1,38 4,2 13,5 16,7 9,8 -16,8 -29,1z"/>
   <path class="fil0 str0" d="M1130 106l-17 0 0 -13 -15 0c-2,10 -6,17 -16,21l0 10 8 0c0,28 -5,50 21,51 4,0 18,-1 19,-5l0 -16c-21,5 -17,3 -17,-30l16 0 0 -17z"/>
   <path class="fil0 str0" d="M487 269l-12 -3c-4,15 -14,25 -31,21 -14,-3 -21,-15 -22,-31 -2,-38 26,-42 40,-35 8,4 8,10 11,15l11 -2c-4,-19 -24,-30 -47,-23 -39,11 -37,80 5,87 23,4 40,-9 44,-29z"/>
   <path class="fil0 str0" d="M964 220c8,-3 15,2 17,8 5,9 9,55 -8,61 -8,3 -15,-3 -18,-8 -5,-10 -9,-54 9,-61zm-2 -9c-19,5 -23,28 -22,50 1,22 10,42 34,37 19,-4 23,-28 22,-50 -1,-21 -10,-42 -34,-37z"/>
   <path class="fil0 str0" d="M730 243c12,-4 19,7 21,17 2,12 -1,24 -11,27 -24,7 -29,-38 -9,-45zm20 -3c-3,-1 -3,-3 -6,-4 -2,-1 -5,-2 -7,-2 -19,-2 -30,12 -30,33 0,27 27,41 44,23l0 6 10 0 0 -85 -11 0 0 29z"/>
   <path class="fil0 str0" d="M875 235l11 1c0,-8 3,-12 7,-14 18,-10 34,10 18,28 -15,16 -38,28 -39,47l57 0 0 -10 -42 0c4,-8 18,-18 25,-24l12 -13c11,-16 4,-40 -25,-39 -15,1 -24,10 -25,25z"/>
   <path class="fil0 str0" d="M684 266c5,30 -38,28 -30,10 3,-7 18,-6 30,-10zm0 24c1,-1 -2,-1 2,-1l0 2c1,7 1,6 13,5 -9,-23 4,-49 -10,-59 -11,-8 -46,-5 -45,16l10 1c5,-8 3,-12 17,-12 12,0 14,4 14,15l-28 5c-31,9 -9,53 28,27z"/>
   <path class="fil0 str0" d="M507 259c1,-10 7,-17 17,-17 11,0 15,7 17,17l-34 0zm45 18c-3,-1 -7,-2 -11,-2 -7,20 -33,16 -34,-8l46 0c2,-45 -51,-45 -57,-10 -8,49 51,49 56,20z"/>
   <path class="fil0 str0" d="M798 243c26,-8 31,37 11,44 -26,9 -33,-38 -11,-44zm-1 -9c-36,7 -30,71 12,63 36,-7 29,-71 -12,-63z"/>
   <path class="fil0 str0" d="M1074 222l41 0c-18,26 -26,39 -30,75l11 0c2,-43 32,-73 32,-77 0,-1 0,-5 0,-7l-56 0 0 10z"/>
   <path class="fil0 str0" d="M1015 232l0 9c5,0 18,-9 21,-11l0 66 11 0 0 -86 -7 0c-4,10 -15,16 -24,22z"/>
   <path class="fil0 str0" d="M615 242l0 -7 -10 0 0 62 11 0c0,-11 -1,-26 0,-37 1,-14 6,-18 19,-14l4 -9c-5,-4 -14,-5 -20,0 -1,1 -1,1 -2,2l-3 3z"/>
   <path class="fil0 str0" d="M575 242l0 -7 -10 0 0 62 11 0c0,-11 -1,-26 0,-37 1,-14 6,-18 19,-14l4 -9c-5,-4 -14,-5 -20,0 -1,1 -1,1 -2,2l-3 3z"/>
   <path class="fil0 str0" d="M686 291l0 -2c-3,0 0,0 -2,1 1,1 0,-1 2,1z"/>
  </g>
  <g id="_2161943935056">
   <path class="fil0 str0" d="M140 311l0 1 2 8c0,6 0,4 -2,7l0 58 5 0 0 -90 3 0 0 90 14 0 0 -56c-2,-2 -2,-1 -2,-7 0,-1 0,-3 0,-3 1,-7 0,-2 2,-4l0 -1c1,-24 0,-20 10,-37 25,-42 9,-30 42,-50 11,-6 19,-12 30,-18 -1,-5 -2,-6 -5,-11 -2,-4 -3,-6 -5,-10 -6,4 -12,8 -19,12 -6,4 -13,9 -20,11 1,-10 2,-18 2,-31 0,-19 7,-22 19,-46 3,-7 10,-13 10,-22 -9,-2 -9,-6 -19,-9 -3,6 -17,34 -22,38 -2,-10 -16,-27 -19,-38 -11,1 -11,6 -20,9 0,6 5,12 8,18 13,26 21,27 21,56l-4 47c-4,9 -16,26 -19,34 -2,-3 -1,-1 -3,-4 -35,-53 -13,-54 -23,-97l-22 0c0,9 2,11 2,20 0,8 0,16 0,24 -6,-4 -33,-21 -39,-22 -2,10 -8,11 -9,20l30 17c33,20 20,12 42,50 3,4 6,9 8,14 3,8 2,12 2,22z"/>
   <path class="fil0 str0" d="M140 326l0 -14 0 -1c-23,0 -56,-18 -73,-33 -36,-30 -48,-63 -52,-108 -4,-35 21,-44 45,-59 10,-6 25,-14 31,-24l0 -20c-34,41 -89,44 -90,92 -1,21 2,38 7,54 8,25 22,48 41,67l25 21c15,10 50,26 67,25z"/>
   <path class="fil0 str0" d="M244 62c41,29 66,60 70,113 0,7 -3,21 -5,25 -4,9 -9,10 -14,17l20 0c11,-18 14,-27 12,-55 -1,-19 -9,-36 -16,-51 -13,-26 -33,-44 -57,-61 -4,-3 -6,-5 -10,-6l0 17z"/>
   <path class="fil0 str0" d="M92 65l0 20c30,-20 40,-108 113,-53l39 29 0 -17 -37 -28c-47,-32 -74,-15 -102,28 -5,7 -9,14 -13,21z"/>
   <path class="fil0 str0" d="M162 313l0 1 0 14c15,0 25,-4 35,-12 34,-27 29,-48 78,-72 13,-6 33,-16 40,-26l-20 0 -28 13c-3,2 -7,4 -10,5 -48,25 -53,77 -96,77z"/>
   <polygon class="fil0 str0" points="91,88 92,86 92,65 91,67 "/>
   <path class="fil0 str0" d="M162 328l0 -14c-1,2 0,-2 -2,4 0,1 0,3 0,3 0,5 0,5 2,7z"/>
   <path class="fil0 str0" d="M140 326c2,-2 2,0 2,-7l-2 -8 0 14z"/>
  </g>
 </g>
</svg>
